<?xml version="1.0" standalone="no"?>
<!DOCTYPE svg PUBLIC "-//W3C//DTD SVG 20010904//EN"
 "http://www.w3.org/TR/2001/REC-SVG-20010904/DTD/svg10.dtd">
<svg version="1.0" xmlns="http://www.w3.org/2000/svg"
 width="200.000000pt" height="200.000000pt" viewBox="0 0 200.000000 200.000000"
 preserveAspectRatio="xMidYMid meet">
<metadata>
Created by potrace 1.14, written by Peter Selinger 2001-2017
</metadata>
<g transform="translate(0.000000,200.000000) scale(0.100000,-0.100000)"
fill="#000000" stroke="none">
<path d="M1320 1986 c-3 -3 -34 -6 -68 -7 -35 -1 -65 -6 -68 -11 -3 -4 -9 -6
-12 -4 -4 2 -25 -9 -46 -25 -22 -16 -37 -29 -33 -29 4 0 -1 -9 -10 -19 -33
-36 -44 -51 -37 -51 3 0 1 -7 -6 -15 -7 -8 -9 -15 -4 -15 5 0 4 -4 -2 -8 -11
-7 -79 -143 -77 -153 1 -3 -2 -22 -7 -43 -7 -31 -5 -41 11 -57 10 -10 24 -19
30 -19 6 0 9 -7 5 -15 -3 -8 -2 -15 3 -15 5 0 11 -9 14 -20 3 -11 2 -20 -2
-20 -12 0 5 -93 24 -132 10 -20 28 -42 41 -49 18 -9 24 -21 24 -48 0 -73 19
-112 88 -181 87 -86 119 -110 148 -110 21 0 24 -5 24 -37 -1 -53 -16 -114 -32
-124 -7 -5 -33 -11 -58 -15 -25 -3 -58 -10 -75 -15 -30 -10 -95 -62 -95 -76 0
-5 -10 -24 -22 -43 -12 -19 -22 -42 -23 -50 -7 -66 -23 -116 -57 -182 -21 -43
-38 -83 -36 -90 1 -7 -4 -31 -11 -53 l-14 -39 -39 99 c-21 55 -52 147 -68 205
-61 211 -85 259 -157 310 -26 18 -65 51 -85 73 -29 31 -41 37 -60 32 -19 -5
-20 -4 -8 5 12 9 10 10 -10 5 -20 -6 -23 -5 -12 6 6 7 12 21 12 30 0 21 29 33
36 15 6 -17 37 -14 40 3 1 6 0 7 -2 2 -3 -6 -11 -8 -19 -5 -11 5 -10 9 3 24
17 21 26 53 11 44 -5 -3 -9 2 -9 10 0 9 5 16 10 16 6 0 10 5 10 11 0 5 -4 8
-8 5 -11 -6 -24 4 -39 31 -9 16 -10 24 -1 29 6 4 8 3 4 -4 -3 -6 -2 -13 3 -16
5 -3 11 1 14 9 4 8 15 12 27 10 15 -3 24 3 30 18 8 21 9 21 10 2 1 -20 1 -20
15 -1 18 23 19 36 4 36 -5 0 -7 -5 -3 -12 5 -8 2 -9 -10 -5 -11 4 -19 1 -24
-12 -5 -14 -12 -17 -29 -10 -15 5 -21 14 -17 24 4 8 1 22 -6 30 -15 18 1 20
19 3 11 -11 11 -9 2 10 -8 14 -8 22 -1 22 5 0 10 -5 10 -12 0 -6 3 -8 7 -5 3
4 12 -1 20 -11 14 -16 14 -16 9 2 -6 16 -4 17 9 6 8 -7 15 -9 16 -4 5 59 2 84
-8 84 -6 0 -14 4 -17 9 -4 5 5 8 18 7 19 -2 23 1 21 15 -3 14 2 19 16 19 13 0
18 4 13 12 -5 7 -2 9 9 5 20 -8 11 22 -12 40 -20 15 -34 17 -25 2 4 -8 0 -8
-15 0 -24 13 -28 23 -6 15 9 -4 18 2 24 17 9 21 16 12 12 -13 -2 -15 19 -8 39
12 11 11 21 18 21 15 1 -3 3 -9 4 -15 1 -5 3 -19 4 -31 0 -11 6 -17 11 -14 6
3 10 1 10 -6 0 -16 13 -3 16 15 1 8 -8 17 -20 20 -21 6 -21 6 3 25 l24 19 -24
12 c-22 12 -23 12 -10 -4 12 -15 12 -17 0 -14 -8 2 -17 7 -20 12 -4 5 -10 -1
-14 -13 -3 -11 -13 -21 -21 -21 -8 0 -13 4 -10 9 3 5 -1 14 -8 20 -11 10 -16
8 -21 -8 -3 -12 -10 -21 -15 -21 -5 0 -6 7 -3 17 5 12 3 14 -8 8 -11 -7 -12
-6 -3 6 6 8 11 26 12 40 1 22 -2 27 -22 25 -16 -1 -22 -6 -18 -18 2 -10 -1
-18 -7 -18 -7 0 -10 4 -7 9 3 5 -2 15 -12 22 -15 12 -16 12 -6 -1 11 -15 11
-46 0 -58 -3 -3 -6 4 -6 15 0 16 -5 20 -20 16 -11 -3 -20 0 -20 6 0 6 -7 11
-15 11 -8 0 -15 5 -15 10 0 6 -5 10 -11 10 -5 0 -7 -5 -3 -12 5 -8 2 -9 -9 -5
-17 6 -20 -12 -4 -24 5 -3 9 -12 10 -20 2 -8 7 -20 11 -28 6 -9 5 -12 -1 -8
-6 4 -14 0 -17 -9 -3 -8 -2 -12 4 -9 14 9 12 -8 -3 -24 -10 -11 -9 -12 2 -6 9
5 12 4 7 -3 -6 -11 -45 -13 -44 -2 2 19 -3 30 -11 26 -10 -7 -9 -31 2 -42 13
-13 8 -27 -6 -16 -10 8 -13 2 -13 -28 -1 -25 4 -41 13 -44 8 -3 11 -1 8 4 -9
15 11 12 23 -2 5 -7 12 -22 14 -33 2 -11 10 -19 17 -17 9 2 10 -4 6 -19 -5
-13 -3 -19 3 -15 6 4 8 -2 5 -15 -4 -15 0 -27 13 -37 18 -14 18 -14 -2 -10
-19 5 -20 3 -10 -17 6 -13 15 -21 21 -18 5 3 4 0 -2 -7 -14 -15 -43 -22 -43
-11 0 4 6 13 12 19 10 10 10 15 -2 22 -19 12 -34 2 -21 -14 6 -7 8 -15 5 -19
-3 -3 0 -16 7 -29 6 -12 8 -20 4 -16 -11 10 -38 -20 -32 -35 4 -8 6 -8 6 0 1
6 9 9 20 6 14 -3 18 -13 17 -44 -1 -36 -10 -49 -24 -35 -3 3 0 6 7 6 7 0 9 5
5 11 -5 8 -9 8 -14 -1 -10 -16 -33 -3 -24 13 5 8 4 9 -3 2 -6 -5 -14 -21 -18
-35 -4 -16 -3 -20 3 -12 5 7 15 12 22 10 15 -3 170 -159 170 -170 0 -23 -84 7
-113 40 -18 20 -15 48 3 37 17 -10 19 13 3 26 -12 10 -14 10 -9 2 4 -7 2 -13
-3 -13 -6 0 -11 5 -11 10 0 6 -9 20 -20 32 -27 29 -26 8 1 -26 12 -15 18 -30
15 -34 -4 -3 -10 -2 -14 3 -4 6 -19 16 -34 22 -28 13 -45 3 -32 -18 4 -7 -1
-7 -16 1 -12 6 -29 9 -38 5 -12 -5 -5 -15 34 -51 27 -25 58 -49 69 -54 11 -4
65 -46 120 -92 56 -45 111 -90 123 -98 19 -13 25 -32 38 -119 8 -57 13 -106
10 -108 -3 -3 -1 -13 3 -22 5 -9 12 -47 16 -86 4 -38 13 -105 21 -150 8 -44
14 -83 14 -88 0 -4 257 -7 571 -7 l571 0 -6 38 c-3 20 -17 82 -32 137 -30 113
-56 254 -49 266 3 4 0 20 -6 36 -6 15 -13 39 -16 53 -7 39 -48 104 -88 139
-29 25 -34 34 -26 50 6 10 17 21 26 25 8 3 15 16 15 30 0 14 5 28 11 32 6 3 9
18 6 32 -3 14 3 38 14 56 10 17 21 45 24 61 10 45 12 126 3 131 -4 2 -6 37 -6
77 0 39 -6 97 -14 127 -14 54 -15 107 -4 201 6 49 -10 79 -35 63 -7 -4 -9 -3
-6 3 4 6 0 14 -8 17 -11 4 -15 20 -15 58 1 29 -1 62 -4 73 -2 11 -5 23 -5 28
-1 4 -5 7 -11 7 -5 0 -7 -8 -3 -17 3 -10 -3 -7 -12 7 -10 14 -48 55 -84 92
-36 36 -67 72 -69 80 -2 7 -8 18 -14 23 -8 7 -9 5 -4 -5 4 -8 0 -6 -8 4 -9 11
-16 24 -16 29 0 4 -5 5 -10 2 -6 -4 -18 -1 -26 6 -15 12 -135 25 -144 15z
m-817 -693 c-3 -7 -8 -13 -12 -13 -4 0 -8 6 -8 13 0 8 6 14 13 14 7 0 10 -6 7
-14z m42 -101 c-3 -3 -11 0 -18 7 -9 10 -8 11 6 5 10 -3 15 -9 12 -12z m5
-156 c0 6 7 11 16 11 15 0 14 -2 -1 -13 -10 -8 -22 -11 -26 -8 -5 3 -9 0 -9
-5 0 -6 -5 -11 -10 -11 -7 0 -7 7 1 21 9 17 13 19 20 8 5 -8 9 -9 9 -3z"/>
<path d="M714 1938 c-4 -7 -3 -10 1 -5 5 4 20 -3 34 -15 l26 -23 -24 28 c-28
31 -28 31 -37 15z"/>
<path d="M580 1919 c0 -5 5 -7 10 -4 6 3 10 8 10 11 0 2 -4 4 -10 4 -5 0 -10
-5 -10 -11z"/>
<path d="M640 1926 c0 -2 7 -7 16 -10 8 -3 12 -2 9 4 -6 10 -25 14 -25 6z"/>
<path d="M530 1906 c0 -8 4 -17 9 -20 5 -4 7 3 4 14 -6 23 -13 26 -13 6z"/>
<path d="M615 1909 c-4 -5 -1 -8 7 -7 7 2 12 -3 11 -9 -2 -7 2 -13 7 -13 6 0
10 6 10 14 0 17 -27 29 -35 15z"/>
<path d="M773 1895 c-7 -8 -9 -16 -4 -19 5 -3 12 1 15 10 8 22 4 25 -11 9z"/>
<path d="M451 1884 c0 -11 3 -14 6 -6 3 7 2 16 -1 19 -3 4 -6 -2 -5 -13z"/>
<path d="M350 1880 c0 -5 5 -10 10 -10 6 0 10 5 10 10 0 6 -4 10 -10 10 -5 0
-10 -4 -10 -10z"/>
<path d="M502 1878 c-7 -7 -12 -17 -12 -22 0 -6 5 -3 11 7 6 9 15 14 21 11 7
-4 8 -2 4 4 -9 15 -9 15 -24 0z"/>
<path d="M590 1875 c10 -12 70 -38 70 -31 0 2 -18 13 -40 24 -23 11 -36 14
-30 7z"/>
<path d="M800 1881 c0 -6 4 -13 10 -16 6 -3 7 1 4 9 -7 18 -14 21 -14 7z"/>
<path d="M692 1849 c-10 -16 -9 -19 4 -19 8 0 13 4 10 9 -4 5 -1 11 6 13 7 3
8 7 2 11 -5 3 -15 -3 -22 -14z"/>
<path d="M408 1844 c-13 -13 -20 -15 -31 -6 -11 9 -16 7 -26 -14 -6 -15 -9
-29 -6 -32 3 -3 5 0 5 7 0 7 5 9 12 5 6 -4 8 -3 4 4 -3 6 -2 13 4 17 5 3 10 2
10 -4 0 -12 27 -8 41 6 6 6 10 16 8 22 -3 7 -10 5 -21 -5z"/>
<path d="M526 1827 c3 -10 9 -15 12 -12 3 3 0 11 -7 18 -10 9 -11 8 -5 -6z"/>
<path d="M835 1831 c-3 -5 -1 -12 5 -16 5 -3 10 1 10 9 0 18 -6 21 -15 7z"/>
<path d="M610 1810 c0 -5 5 -10 10 -10 6 0 10 5 10 10 0 6 -4 10 -10 10 -5 0
-10 -4 -10 -10z"/>
<path d="M640 1799 c0 -5 5 -7 10 -4 6 3 10 8 10 11 0 2 -4 4 -10 4 -5 0 -10
-5 -10 -11z"/>
<path d="M868 1788 l5 -23 -23 20 c-21 17 -20 15 4 -17 16 -21 31 -38 34 -38
3 0 1 5 -6 12 -14 14 -16 32 -3 24 4 -3 6 6 3 19 -2 14 -8 25 -12 25 -5 0 -6
-10 -2 -22z"/>
<path d="M900 1800 c0 -5 5 -10 11 -10 5 0 7 5 4 10 -3 6 -8 10 -11 10 -2 0
-4 -4 -4 -10z"/>
<path d="M362 1777 c-8 -10 -6 -13 9 -13 10 0 19 6 19 13 0 7 -4 13 -9 13 -5
0 -13 -6 -19 -13z"/>
<path d="M400 1786 c0 -2 7 -6 15 -10 8 -3 15 -1 15 4 0 6 -7 10 -15 10 -8 0
-15 -2 -15 -4z"/>
<path d="M466 1764 c8 -36 7 -34 21 -26 8 5 5 15 -9 31 l-19 25 7 -30z"/>
<path d="M515 1780 c-3 -5 -1 -10 4 -10 6 0 11 5 11 10 0 6 -2 10 -4 10 -3 0
-8 -4 -11 -10z"/>
<path d="M570 1782 c0 -4 9 -8 19 -8 11 0 17 4 15 8 -3 4 -12 8 -20 8 -8 0
-14 -4 -14 -8z"/>
<path d="M580 1746 c0 -8 4 -18 10 -21 6 -4 7 1 3 12 -6 16 -5 17 13 3 18 -14
18 -14 5 3 -16 21 -31 22 -31 3z"/>
<path d="M350 1740 c0 -5 7 -7 15 -4 8 4 15 8 15 10 0 2 -7 4 -15 4 -8 0 -15
-4 -15 -10z"/>
<path d="M400 1730 c0 -5 -7 -7 -15 -4 -8 4 -15 2 -15 -4 0 -14 33 -8 38 6 2
7 1 12 -2 12 -3 0 -6 -4 -6 -10z"/>
<path d="M721 1717 c-8 -11 -6 -18 9 -32 18 -17 20 -17 14 -2 -3 9 -11 17 -16
17 -6 0 -5 6 2 15 7 8 10 15 7 15 -2 0 -10 -6 -16 -13z"/>
<path d="M577 1703 c-4 -3 -7 -11 -7 -17 0 -6 5 -5 12 2 6 6 9 14 7 17 -3 3
-9 2 -12 -2z"/>
<path d="M489 1680 c5 -8 8 -27 7 -42 -1 -16 2 -28 6 -28 4 0 8 5 8 10 0 19 2
25 12 38 7 8 7 12 -1 12 -6 0 -11 4 -11 10 0 5 8 7 18 3 10 -4 14 -2 9 3 -5 5
-19 9 -32 9 -18 1 -22 -3 -16 -15z"/>
<path d="M872 1685 c3 -3 16 -8 28 -10 12 -2 20 -1 16 2 -4 4 -16 8 -28 10
-12 2 -19 1 -16 -2z"/>
<path d="M178 1663 c6 -2 9 -10 6 -15 -4 -7 -2 -8 5 -4 13 9 5 26 -12 25 -9 0
-8 -2 1 -6z"/>
<path d="M560 1660 c0 -5 -5 -9 -12 -7 -6 1 -17 -17 -24 -40 -11 -39 -4 -61
10 -30 3 6 3 2 1 -10 -3 -12 -1 -24 5 -28 15 -9 13 38 -2 54 -11 11 -9 12 11
6 15 -4 21 -3 17 3 -3 5 1 12 9 16 8 3 15 11 15 18 0 9 -3 9 -11 -2 -9 -12
-10 -11 -6 8 3 12 1 22 -4 22 -5 0 -9 -4 -9 -10z"/>
<path d="M737 1653 c7 -2 9 -11 6 -19 -3 -9 0 -12 9 -9 22 9 18 31 -6 32 -12
1 -16 -1 -9 -4z"/>
<path d="M780 1617 c0 -10 -5 -14 -15 -11 -8 4 -15 1 -15 -5 0 -6 4 -11 9 -11
6 0 8 -8 7 -17 -2 -10 0 -27 5 -38 5 -13 8 -15 8 -5 1 8 10 21 22 28 11 7 18
19 16 26 -3 8 0 19 6 26 9 10 8 12 -4 7 -9 -3 -22 0 -28 6 -8 8 -11 7 -11 -6z"/>
<path d="M878 1623 c7 -3 16 -2 19 1 4 3 -2 6 -13 5 -11 0 -14 -3 -6 -6z"/>
<path d="M171 1593 c8 -13 21 -23 29 -22 10 0 11 2 2 6 -6 2 -9 10 -5 16 3 7
3 9 -2 5 -4 -4 -15 -2 -23 5 -13 11 -14 9 -1 -10z"/>
<path d="M891 1594 c0 -11 3 -14 6 -6 3 7 2 16 -1 19 -3 4 -6 -2 -5 -13z"/>
<path d="M140 1576 c0 -2 8 -10 18 -17 15 -13 16 -12 3 4 -13 16 -21 21 -21
13z"/>
<path d="M372 1571 c4 -13 18 -16 19 -4 0 4 -5 9 -11 12 -7 2 -11 -2 -8 -8z"/>
<path d="M738 1573 c6 -2 9 -10 6 -15 -4 -7 -2 -8 5 -4 13 9 5 26 -12 25 -9 0
-8 -2 1 -6z"/>
<path d="M863 1575 c4 -5 0 -17 -10 -27 -9 -10 -13 -18 -9 -18 4 0 1 -10 -5
-22 -12 -23 -12 -23 8 -3 11 11 16 22 11 24 -5 1 -2 11 7 21 13 14 14 20 3 26
-7 4 -10 3 -5 -1z"/>
<path d="M221 1552 c-7 -14 -5 -21 8 -29 14 -9 18 -8 18 3 0 7 -5 10 -10 7 -6
-4 -8 3 -5 15 7 27 2 28 -11 4z"/>
<path d="M802 1548 c-15 -15 -16 -48 -1 -48 6 0 8 9 4 23 -6 21 -6 21 9 3 9
-11 16 -15 16 -9 0 7 -5 15 -11 19 -8 4 -7 9 2 15 8 5 9 9 4 9 -6 0 -16 -5
-23 -12z"/>
<path d="M270 1529 c0 -5 5 -7 10 -4 6 3 10 8 10 11 0 2 -4 4 -10 4 -5 0 -10
-5 -10 -11z"/>
<path d="M300 1520 c0 -5 5 -10 10 -10 6 0 10 5 10 10 0 6 -4 10 -10 10 -5 0
-10 -4 -10 -10z"/>
<path d="M170 1510 c0 -5 5 -10 10 -10 6 0 10 5 10 10 0 6 -4 10 -10 10 -5 0
-10 -4 -10 -10z"/>
<path d="M450 1496 c0 -15 4 -25 9 -22 10 7 9 31 -2 42 -4 4 -7 -5 -7 -20z"/>
<path d="M270 1500 c0 -5 5 -10 11 -10 5 0 7 5 4 10 -3 6 -8 10 -11 10 -2 0
-4 -4 -4 -10z"/>
<path d="M353 1494 c-7 -7 -13 -17 -13 -23 0 -5 -9 -7 -20 -4 -21 6 -28 -11
-8 -23 7 -5 8 -3 3 6 -5 9 -2 10 14 5 15 -4 21 -2 21 9 0 8 7 19 16 24 9 5 13
12 8 15 -5 3 -15 -1 -21 -9z"/>
<path d="M310 1490 c-9 -6 -10 -10 -3 -10 6 0 15 5 18 10 8 12 4 12 -15 0z"/>
<path d="M806 1477 c3 -10 9 -15 12 -12 3 3 0 11 -7 18 -10 9 -11 8 -5 -6z"/>
<path d="M265 1464 c9 -7 13 -18 9 -28 -3 -9 -1 -16 5 -16 6 0 11 13 11 29 0
24 -4 29 -21 28 -18 -1 -18 -3 -4 -13z"/>
<path d="M370 1460 c0 -5 5 -10 11 -10 5 0 7 5 4 10 -3 6 -8 10 -11 10 -2 0
-4 -4 -4 -10z"/>
<path d="M235 1450 c3 -5 8 -10 11 -10 2 0 4 5 4 10 0 6 -5 10 -11 10 -5 0 -7
-4 -4 -10z"/>
<path d="M185 1440 c-3 -5 -1 -10 4 -10 6 0 11 5 11 10 0 6 -2 10 -4 10 -3 0
-8 -4 -11 -10z"/>
<path d="M383 1413 c0 -15 19 -12 24 3 2 6 -3 11 -10 11 -8 0 -14 -6 -14 -14z"/>
<path d="M300 1411 c0 -6 4 -13 10 -16 6 -3 7 1 4 9 -7 18 -14 21 -14 7z"/>
<path d="M340 1401 c0 -6 4 -13 10 -16 6 -3 7 1 4 9 -7 18 -14 21 -14 7z"/>
<path d="M765 1391 c6 -11 4 -13 -8 -8 -8 3 -17 0 -20 -6 -3 -7 5 -12 18 -12
22 0 27 17 10 32 -4 5 -5 2 0 -6z"/>
<path d="M175 1380 c3 -5 8 -10 11 -10 2 0 4 5 4 10 0 6 -5 10 -11 10 -5 0 -7
-4 -4 -10z"/>
<path d="M386 1381 c-3 -5 1 -11 9 -14 9 -4 12 -1 8 9 -6 16 -10 17 -17 5z"/>
<path d="M743 1353 c-7 -2 -13 -13 -13 -23 0 -10 -6 -21 -12 -23 -9 -4 -9 -6
-1 -6 6 -1 18 13 27 29 8 17 14 30 13 29 -1 0 -8 -3 -14 -6z"/>
<path d="M770 1339 c0 -5 5 -7 10 -4 6 3 10 8 10 11 0 2 -4 4 -10 4 -5 0 -10
-5 -10 -11z"/>
<path d="M290 1332 c0 -16 13 -20 35 -11 11 4 15 8 8 8 -6 1 -18 4 -27 7 -9 3
-16 1 -16 -4z"/>
<path d="M260 1299 c-13 -9 -13 -10 2 -6 9 3 19 1 22 -6 2 -7 5 -4 5 6 1 20
-7 21 -29 6z"/>
<path d="M707 1253 c3 -7 6 -13 8 -13 2 0 5 6 8 13 3 8 -1 14 -8 14 -7 0 -11
-6 -8 -14z"/>
<path d="M456 1252 c-3 -6 -1 -14 5 -17 15 -10 25 3 12 16 -7 7 -13 7 -17 1z"/>
<path d="M673 1232 c1 -13 6 -21 13 -18 6 2 17 -1 24 -7 9 -9 9 -6 -1 10 -7
12 -16 20 -20 17 -4 -2 -9 2 -12 8 -3 7 -4 3 -4 -10z"/>
<path d="M590 1220 c-9 -6 -10 -10 -3 -10 6 0 15 5 18 10 8 12 4 12 -15 0z"/>
<path d="M290 1205 c-7 -9 -11 -17 -9 -20 3 -2 10 5 17 15 14 24 10 26 -8 5z"/>
<path d="M396 1211 c-4 -7 -5 -15 -2 -18 9 -9 19 4 14 18 -4 11 -6 11 -12 0z"/>
<path d="M481 1204 c0 -11 3 -14 6 -6 3 7 2 16 -1 19 -3 4 -6 -2 -5 -13z"/>
<path d="M701 1164 c0 -11 3 -14 6 -6 3 7 2 16 -1 19 -3 4 -6 -2 -5 -13z"/>
<path d="M430 1156 c0 -2 8 -10 18 -17 15 -13 16 -12 3 4 -13 16 -21 21 -21
13z"/>
<path d="M416 1109 c-11 -11 -15 -19 -9 -19 12 0 38 28 32 34 -2 2 -13 -5 -23
-15z"/>
<path d="M565 1120 c4 -6 11 -8 16 -5 14 9 11 15 -7 15 -8 0 -12 -5 -9 -10z"/>
<path d="M408 1023 c6 -3 10 -9 6 -14 -8 -14 2 -11 14 4 8 10 6 13 -11 14 -12
0 -16 -1 -9 -4z"/>
</g>
</svg>
